<?xml version="1.0" encoding="utf-8" standalone="no"?>
<!DOCTYPE svg PUBLIC "-//W3C//DTD SVG 1.1//EN"
  "http://www.w3.org/Graphics/SVG/1.1/DTD/svg11.dtd">
<svg xmlns:xlink="http://www.w3.org/1999/xlink" width="460.8pt" height="345.6pt" viewBox="0 0 460.8 345.6" xmlns="http://www.w3.org/2000/svg" version="1.1">
 <metadata>
  <rdf:RDF xmlns:dc="http://purl.org/dc/elements/1.1/" xmlns:cc="http://creativecommons.org/ns#" xmlns:rdf="http://www.w3.org/1999/02/22-rdf-syntax-ns#">
   <cc:Work>
    <dc:type rdf:resource="http://purl.org/dc/dcmitype/StillImage"/>
    <dc:date>2024-04-06T21:28:54.357858</dc:date>
    <dc:format>image/svg+xml</dc:format>
    <dc:creator>
     <cc:Agent>
      <dc:title>Matplotlib v3.8.0, https://matplotlib.org/</dc:title>
     </cc:Agent>
    </dc:creator>
   </cc:Work>
  </rdf:RDF>
 </metadata>
 <defs>
  <style type="text/css">*{stroke-linejoin: round; stroke-linecap: butt}</style>
 </defs>
 <g id="figure_1">
  <g id="patch_1">
   <path d="M 0 345.6 
L 460.8 345.6 
L 460.8 0 
L 0 0 
z
" style="fill: #ffffff"/>
  </g>
  <g id="axes_1">
   <g id="patch_2">
    <path d="M 57.6 307.584 
L 414.72 307.584 
L 414.72 41.472 
L 57.6 41.472 
z
" style="fill: #ffffff"/>
   </g>
   <g id="matplotlib.axis_1">
    <g id="xtick_1">
     <g id="line2d_1">
      <defs>
       <path id="m79f3fed48c" d="M 0 0 
L 0 3.5 
" style="stroke: #000000; stroke-width: 0.8"/>
      </defs>
      <g>
       <use xlink:href="#m79f3fed48c" x="73.832727" y="307.584" style="stroke: #000000; stroke-width: 0.8"/>
      </g>
     </g>
     <g id="text_1">
      <!-- 0 -->
      <g transform="translate(71.332727 321.459) scale(0.1 -0.1)">
       <defs>
        <path id="SimHei-30" d="M 225 2537 
Q 250 3200 412 3587 
Q 575 3975 875 4225 
Q 1175 4475 1612 4475 
Q 2050 4475 2375 4112 
Q 2700 3750 2800 3200 
Q 2900 2650 2862 1937 
Q 2825 1225 2612 775 
Q 2400 325 1975 150 
Q 1550 -25 1125 187 
Q 700 400 525 750 
Q 350 1100 275 1487 
Q 200 1875 225 2537 
z
M 750 2687 
Q 675 2000 800 1462 
Q 925 925 1212 700 
Q 1500 475 1800 612 
Q 2100 750 2237 1162 
Q 2375 1575 2375 2062 
Q 2375 2550 2337 2950 
Q 2300 3350 2112 3675 
Q 1925 4000 1612 4012 
Q 1300 4025 1062 3700 
Q 825 3375 750 2687 
z
" transform="scale(0.015625)"/>
       </defs>
       <use xlink:href="#SimHei-30"/>
      </g>
     </g>
    </g>
    <g id="xtick_2">
     <g id="line2d_2">
      <g>
       <use xlink:href="#m79f3fed48c" x="138.828632" y="307.584" style="stroke: #000000; stroke-width: 0.8"/>
      </g>
     </g>
     <g id="text_2">
      <!-- 200 -->
      <g transform="translate(131.328632 321.459) scale(0.1 -0.1)">
       <defs>
        <path id="SimHei-32" d="M 300 250 
Q 325 625 650 925 
Q 975 1225 1475 1862 
Q 1975 2500 2125 2850 
Q 2275 3200 2237 3450 
Q 2200 3700 2000 3862 
Q 1800 4025 1537 4000 
Q 1275 3975 1037 3800 
Q 800 3625 675 3275 
L 200 3350 
Q 400 3925 712 4187 
Q 1025 4450 1450 4475 
Q 1700 4500 1900 4462 
Q 2100 4425 2312 4287 
Q 2525 4150 2662 3875 
Q 2800 3600 2762 3212 
Q 2725 2825 2375 2287 
Q 2025 1750 1025 600 
L 2825 600 
L 2825 150 
L 300 150 
L 300 250 
z
" transform="scale(0.015625)"/>
       </defs>
       <use xlink:href="#SimHei-32"/>
       <use xlink:href="#SimHei-30" x="50"/>
       <use xlink:href="#SimHei-30" x="100"/>
      </g>
     </g>
    </g>
    <g id="xtick_3">
     <g id="line2d_3">
      <g>
       <use xlink:href="#m79f3fed48c" x="203.824537" y="307.584" style="stroke: #000000; stroke-width: 0.8"/>
      </g>
     </g>
     <g id="text_3">
      <!-- 400 -->
      <g transform="translate(196.324537 321.459) scale(0.1 -0.1)">
       <defs>
        <path id="SimHei-34" d="M 2000 1100 
L 75 1100 
L 75 1525 
L 2100 4450 
L 2475 4450 
L 2475 1525 
L 3075 1525 
L 3075 1100 
L 2475 1100 
L 2475 150 
L 2000 150 
L 2000 1100 
z
M 2000 1525 
L 2000 3500 
L 600 1525 
L 2000 1525 
z
" transform="scale(0.015625)"/>
       </defs>
       <use xlink:href="#SimHei-34"/>
       <use xlink:href="#SimHei-30" x="50"/>
       <use xlink:href="#SimHei-30" x="100"/>
      </g>
     </g>
    </g>
    <g id="xtick_4">
     <g id="line2d_4">
      <g>
       <use xlink:href="#m79f3fed48c" x="268.820442" y="307.584" style="stroke: #000000; stroke-width: 0.8"/>
      </g>
     </g>
     <g id="text_4">
      <!-- 600 -->
      <g transform="translate(261.320442 321.459) scale(0.1 -0.1)">
       <defs>
        <path id="SimHei-36" d="M 250 1612 
Q 275 1975 387 2225 
Q 500 2475 725 2850 
L 1750 4450 
L 2325 4450 
L 1275 2800 
Q 1950 2975 2350 2750 
Q 2750 2525 2887 2237 
Q 3025 1950 3037 1612 
Q 3050 1275 2937 950 
Q 2825 625 2537 362 
Q 2250 100 1737 75 
Q 1225 50 862 262 
Q 500 475 362 862 
Q 225 1250 250 1612 
z
M 1025 787 
Q 1250 550 1625 525 
Q 2000 500 2250 775 
Q 2500 1050 2500 1575 
Q 2500 2100 2187 2300 
Q 1875 2500 1487 2450 
Q 1100 2400 925 2075 
Q 750 1750 775 1387 
Q 800 1025 1025 787 
z
" transform="scale(0.015625)"/>
       </defs>
       <use xlink:href="#SimHei-36"/>
       <use xlink:href="#SimHei-30" x="50"/>
       <use xlink:href="#SimHei-30" x="100"/>
      </g>
     </g>
    </g>
    <g id="xtick_5">
     <g id="line2d_5">
      <g>
       <use xlink:href="#m79f3fed48c" x="333.816347" y="307.584" style="stroke: #000000; stroke-width: 0.8"/>
      </g>
     </g>
     <g id="text_5">
      <!-- 800 -->
      <g transform="translate(326.316347 321.459) scale(0.1 -0.1)">
       <defs>
        <path id="SimHei-38" d="M 175 1375 
Q 175 1675 325 1962 
Q 475 2250 825 2425 
Q 525 2600 425 2812 
Q 325 3025 312 3300 
Q 300 3575 387 3775 
Q 475 3975 650 4150 
Q 825 4325 1037 4387 
Q 1250 4450 1500 4450 
Q 1750 4450 1950 4400 
Q 2150 4350 2375 4187 
Q 2600 4025 2700 3725 
Q 2800 3425 2687 3025 
Q 2575 2625 2100 2400 
Q 2525 2275 2700 2012 
Q 2875 1750 2875 1375 
Q 2875 1000 2762 775 
Q 2650 550 2512 400 
Q 2375 250 2137 162 
Q 1900 75 1537 75 
Q 1175 75 912 162 
Q 650 250 475 425 
Q 300 600 237 837 
Q 175 1075 175 1375 
z
M 687 1400 
Q 675 1100 787 875 
Q 900 650 1200 587 
Q 1500 525 1825 600 
Q 2150 675 2275 950 
Q 2400 1225 2362 1500 
Q 2325 1775 2050 1962 
Q 1775 2150 1450 2125 
Q 1125 2100 912 1900 
Q 700 1700 687 1400 
z
M 775 3350 
Q 775 3100 950 2875 
Q 1125 2650 1500 2650 
Q 1875 2650 2062 2875 
Q 2250 3100 2237 3412 
Q 2225 3725 2012 3875 
Q 1800 4025 1437 4000 
Q 1075 3975 925 3787 
Q 775 3600 775 3350 
z
" transform="scale(0.015625)"/>
       </defs>
       <use xlink:href="#SimHei-38"/>
       <use xlink:href="#SimHei-30" x="50"/>
       <use xlink:href="#SimHei-30" x="100"/>
      </g>
     </g>
    </g>
    <g id="xtick_6">
     <g id="line2d_6">
      <g>
       <use xlink:href="#m79f3fed48c" x="398.812252" y="307.584" style="stroke: #000000; stroke-width: 0.8"/>
      </g>
     </g>
     <g id="text_6">
      <!-- 1000 -->
      <g transform="translate(388.812252 321.459) scale(0.1 -0.1)">
       <defs>
        <path id="SimHei-31" d="M 1400 3600 
Q 1075 3275 575 2975 
L 575 3450 
Q 1200 3875 1600 4450 
L 1900 4450 
L 1900 150 
L 1400 150 
L 1400 3600 
z
" transform="scale(0.015625)"/>
       </defs>
       <use xlink:href="#SimHei-31"/>
       <use xlink:href="#SimHei-30" x="50"/>
       <use xlink:href="#SimHei-30" x="100"/>
       <use xlink:href="#SimHei-30" x="150"/>
      </g>
     </g>
    </g>
    <g id="text_7">
     <!-- 次数 -->
     <g transform="translate(226.16 334.599625) scale(0.1 -0.1)">
      <defs>
       <path id="SimHei-6b21" d="M 4150 3025 
Q 4000 2550 4050 2187 
Q 4100 1825 4275 1450 
Q 4450 1075 4800 750 
Q 5150 425 5475 212 
Q 5800 0 6150 -150 
Q 5875 -350 5750 -625 
Q 5250 -325 4887 -25 
Q 4525 275 4275 612 
Q 4025 950 3825 1425 
Q 3525 625 2950 125 
Q 2375 -375 1850 -650 
Q 1675 -400 1475 -225 
Q 2025 0 2487 362 
Q 2950 725 3162 1100 
Q 3375 1475 3450 1825 
Q 3525 2175 3537 2400 
Q 3550 2625 3525 3125 
Q 3825 3050 4150 3025 
z
M 3700 4975 
Q 3625 4900 3475 4575 
Q 3325 4250 3250 4075 
L 5775 4075 
Q 5650 3725 5550 3362 
Q 5450 3000 5275 2500 
Q 5000 2575 4775 2600 
Q 5025 3350 5100 3650 
L 3100 3650 
Q 2975 3400 2812 3100 
Q 2650 2800 2425 2450 
Q 2275 2600 1975 2700 
Q 2300 3050 2625 3762 
Q 2950 4475 3125 5200 
Q 3450 5025 3700 4975 
z
M 2025 2000 
Q 1825 1675 1475 1087 
Q 1125 500 725 -200 
Q 500 -25 250 175 
Q 725 725 1037 1262 
Q 1350 1800 1575 2325 
Q 1750 2175 2025 2000 
z
M 900 4750 
Q 1725 3725 1950 3375 
Q 1750 3250 1500 3050 
Q 1250 3525 500 4425 
Q 700 4575 900 4750 
z
" transform="scale(0.015625)"/>
       <path id="SimHei-6570" d="M 4525 4925 
Q 4475 4800 4400 4587 
Q 4325 4375 4175 3825 
L 5325 3825 
Q 5575 3825 5925 3850 
L 5925 3400 
Q 5650 3425 5500 3425 
Q 5500 3025 5362 2162 
Q 5225 1300 4875 675 
Q 5125 375 5437 137 
Q 5750 -100 6025 -200 
Q 5725 -425 5625 -625 
Q 5325 -450 5075 -225 
Q 4825 0 4575 325 
Q 4300 25 3987 -187 
Q 3675 -400 3200 -650 
Q 3075 -425 2850 -300 
Q 3225 -150 3650 125 
Q 4075 400 4300 675 
Q 4125 1025 3962 1425 
Q 3800 1825 3675 2475 
Q 3600 2275 3425 1950 
Q 3250 2050 3000 2150 
Q 3400 2850 3650 3675 
Q 3900 4500 3975 5100 
Q 4275 4975 4525 4925 
z
M 2100 2250 
Q 2000 2150 1875 1925 
L 3250 1925 
Q 3100 1300 2725 675 
Q 3125 525 3350 400 
Q 3225 225 3125 25 
Q 2900 175 2450 325 
Q 1950 -225 725 -650 
Q 600 -375 400 -275 
Q 1575 0 2000 475 
Q 1300 650 850 775 
Q 1000 1000 1250 1525 
Q 1000 1525 425 1500 
L 425 1950 
Q 900 1925 1400 1925 
Q 1500 2150 1550 2425 
Q 1825 2325 2100 2250 
z
M 1775 3950 
Q 1775 4550 1750 5100 
L 2250 5100 
Q 2225 4575 2225 3950 
Q 3075 3950 3425 3975 
L 3425 3525 
Q 3075 3550 2225 3550 
Q 2225 2825 2250 2425 
L 1750 2425 
Q 1775 2775 1775 3300 
Q 1650 3100 1300 2787 
Q 950 2475 650 2300 
Q 525 2525 275 2625 
Q 500 2700 875 2975 
Q 1250 3250 1450 3550 
Q 950 3550 500 3525 
L 500 3975 
Q 925 3950 1775 3950 
z
M 3975 3175 
Q 4200 1700 4600 1125 
Q 4850 1700 4937 2287 
Q 5025 2875 5050 3425 
L 4075 3425 
L 3975 3175 
z
M 1450 1000 
Q 1750 925 2275 800 
Q 2475 1050 2650 1525 
L 1725 1525 
Q 1600 1275 1450 1000 
z
M 3325 4825 
Q 3200 4625 3125 4450 
Q 3050 4275 2925 4025 
Q 2725 4125 2525 4175 
Q 2725 4500 2900 5000 
Q 3150 4875 3325 4825 
z
M 2575 3375 
Q 2900 3050 3200 2725 
Q 3050 2600 2875 2425 
Q 2525 2850 2300 3100 
Q 2450 3225 2575 3375 
z
M 925 5000 
Q 1275 4650 1500 4300 
L 1125 4075 
Q 950 4425 600 4725 
Q 825 4875 925 5000 
z
" transform="scale(0.015625)"/>
      </defs>
      <use xlink:href="#SimHei-6b21"/>
      <use xlink:href="#SimHei-6570" x="100"/>
     </g>
    </g>
   </g>
   <g id="matplotlib.axis_2">
    <g id="ytick_1">
     <g id="line2d_7">
      <defs>
       <path id="mf476f521ad" d="M 0 0 
L -3.5 0 
" style="stroke: #000000; stroke-width: 0.8"/>
      </defs>
      <g>
       <use xlink:href="#mf476f521ad" x="57.6" y="303.525064" style="stroke: #000000; stroke-width: 0.8"/>
      </g>
     </g>
     <g id="text_8">
      <!-- 0.30 -->
      <g transform="translate(30.6 306.962564) scale(0.1 -0.1)">
       <defs>
        <path id="SimHei-2e" d="M 1075 125 
L 500 125 
L 500 675 
L 1075 675 
L 1075 125 
z
" transform="scale(0.015625)"/>
        <path id="SimHei-33" d="M 250 1225 
L 700 1300 
Q 800 975 1025 762 
Q 1250 550 1587 562 
Q 1925 575 2125 837 
Q 2325 1100 2300 1437 
Q 2275 1775 2037 1962 
Q 1800 2150 1275 2225 
L 1275 2550 
Q 1800 2600 2037 2825 
Q 2275 3050 2250 3412 
Q 2225 3775 1925 3937 
Q 1625 4100 1287 3975 
Q 950 3850 750 3275 
L 300 3350 
Q 450 3800 712 4100 
Q 975 4400 1425 4450 
Q 1875 4500 2212 4337 
Q 2550 4175 2687 3837 
Q 2825 3500 2725 3100 
Q 2625 2700 2150 2400 
Q 2500 2250 2687 1950 
Q 2875 1650 2812 1162 
Q 2750 675 2375 375 
Q 2000 75 1525 87 
Q 1050 100 700 387 
Q 350 675 250 1225 
z
" transform="scale(0.015625)"/>
       </defs>
       <use xlink:href="#SimHei-30"/>
       <use xlink:href="#SimHei-2e" x="50"/>
       <use xlink:href="#SimHei-33" x="100"/>
       <use xlink:href="#SimHei-30" x="150"/>
      </g>
     </g>
    </g>
    <g id="ytick_2">
     <g id="line2d_8">
      <g>
       <use xlink:href="#mf476f521ad" x="57.6" y="263.930651" style="stroke: #000000; stroke-width: 0.8"/>
      </g>
     </g>
     <g id="text_9">
      <!-- 0.31 -->
      <g transform="translate(30.6 267.368151) scale(0.1 -0.1)">
       <use xlink:href="#SimHei-30"/>
       <use xlink:href="#SimHei-2e" x="50"/>
       <use xlink:href="#SimHei-33" x="100"/>
       <use xlink:href="#SimHei-31" x="150"/>
      </g>
     </g>
    </g>
    <g id="ytick_3">
     <g id="line2d_9">
      <g>
       <use xlink:href="#mf476f521ad" x="57.6" y="224.336238" style="stroke: #000000; stroke-width: 0.8"/>
      </g>
     </g>
     <g id="text_10">
      <!-- 0.32 -->
      <g transform="translate(30.6 227.773738) scale(0.1 -0.1)">
       <use xlink:href="#SimHei-30"/>
       <use xlink:href="#SimHei-2e" x="50"/>
       <use xlink:href="#SimHei-33" x="100"/>
       <use xlink:href="#SimHei-32" x="150"/>
      </g>
     </g>
    </g>
    <g id="ytick_4">
     <g id="line2d_10">
      <g>
       <use xlink:href="#mf476f521ad" x="57.6" y="184.741825" style="stroke: #000000; stroke-width: 0.8"/>
      </g>
     </g>
     <g id="text_11">
      <!-- 0.33 -->
      <g transform="translate(30.6 188.179325) scale(0.1 -0.1)">
       <use xlink:href="#SimHei-30"/>
       <use xlink:href="#SimHei-2e" x="50"/>
       <use xlink:href="#SimHei-33" x="100"/>
       <use xlink:href="#SimHei-33" x="150"/>
      </g>
     </g>
    </g>
    <g id="ytick_5">
     <g id="line2d_11">
      <g>
       <use xlink:href="#mf476f521ad" x="57.6" y="145.147412" style="stroke: #000000; stroke-width: 0.8"/>
      </g>
     </g>
     <g id="text_12">
      <!-- 0.34 -->
      <g transform="translate(30.6 148.584912) scale(0.1 -0.1)">
       <use xlink:href="#SimHei-30"/>
       <use xlink:href="#SimHei-2e" x="50"/>
       <use xlink:href="#SimHei-33" x="100"/>
       <use xlink:href="#SimHei-34" x="150"/>
      </g>
     </g>
    </g>
    <g id="ytick_6">
     <g id="line2d_12">
      <g>
       <use xlink:href="#mf476f521ad" x="57.6" y="105.552999" style="stroke: #000000; stroke-width: 0.8"/>
      </g>
     </g>
     <g id="text_13">
      <!-- 0.35 -->
      <g transform="translate(30.6 108.990499) scale(0.1 -0.1)">
       <defs>
        <path id="SimHei-35" d="M 550 1325 
Q 725 650 1150 575 
Q 1575 500 1837 662 
Q 2100 825 2212 1087 
Q 2325 1350 2312 1675 
Q 2300 2000 2137 2225 
Q 1975 2450 1725 2525 
Q 1475 2600 1162 2525 
Q 850 2450 650 2175 
L 225 2225 
Q 275 2375 700 4375 
L 2675 4375 
L 2675 3925 
L 1075 3925 
Q 950 3250 825 2850 
Q 1200 3025 1525 3012 
Q 1850 3000 2150 2862 
Q 2450 2725 2587 2487 
Q 2725 2250 2787 2012 
Q 2850 1775 2837 1500 
Q 2825 1225 2725 937 
Q 2625 650 2425 462 
Q 2225 275 1937 162 
Q 1650 50 1275 75 
Q 900 100 562 350 
Q 225 600 100 1200 
L 550 1325 
z
" transform="scale(0.015625)"/>
       </defs>
       <use xlink:href="#SimHei-30"/>
       <use xlink:href="#SimHei-2e" x="50"/>
       <use xlink:href="#SimHei-33" x="100"/>
       <use xlink:href="#SimHei-35" x="150"/>
      </g>
     </g>
    </g>
    <g id="ytick_7">
     <g id="line2d_13">
      <g>
       <use xlink:href="#mf476f521ad" x="57.6" y="65.958586" style="stroke: #000000; stroke-width: 0.8"/>
      </g>
     </g>
     <g id="text_14">
      <!-- 0.36 -->
      <g transform="translate(30.6 69.396086) scale(0.1 -0.1)">
       <use xlink:href="#SimHei-30"/>
       <use xlink:href="#SimHei-2e" x="50"/>
       <use xlink:href="#SimHei-33" x="100"/>
       <use xlink:href="#SimHei-36" x="150"/>
      </g>
     </g>
    </g>
    <g id="text_15">
     <!-- 时间 -->
     <g transform="translate(25.35 184.528) rotate(-90) scale(0.1 -0.1)">
      <defs>
       <path id="SimHei-65f6" d="M 2525 4575 
Q 2500 3675 2500 2400 
Q 2500 1125 2525 400 
L 2000 400 
L 2000 875 
L 1000 875 
L 1000 50 
L 475 50 
Q 500 1200 500 2350 
Q 500 3525 475 4575 
L 2525 4575 
z
M 4875 3825 
Q 4875 4575 4850 5225 
L 5400 5225 
Q 5375 4575 5375 3825 
Q 5750 3825 6175 3850 
L 6175 3375 
Q 5750 3400 5375 3400 
L 5375 50 
Q 5375 -325 5075 -425 
Q 4775 -525 4300 -575 
Q 4300 -275 4025 0 
Q 4500 -50 4687 -25 
Q 4875 0 4875 300 
L 4875 3400 
Q 3625 3400 2775 3375 
L 2775 3850 
Q 3575 3825 4875 3825 
z
M 2000 1300 
L 2000 2550 
L 1000 2550 
L 1000 1300 
L 2000 1300 
z
M 2000 2975 
L 2000 4150 
L 1000 4150 
L 1000 2975 
L 2000 2975 
z
M 3550 2725 
Q 3875 2200 4175 1600 
Q 3925 1525 3650 1375 
Q 3450 1975 3075 2500 
Q 3300 2600 3550 2725 
z
" transform="scale(0.015625)"/>
       <path id="SimHei-95f4" d="M 4450 3550 
Q 4425 3075 4425 2725 
L 4425 1400 
Q 4425 1075 4450 625 
L 1925 625 
Q 1950 1075 1950 1425 
L 1950 2725 
Q 1950 3075 1925 3550 
L 4450 3550 
z
M 5800 4875 
Q 5775 4400 5775 3925 
L 5775 250 
Q 5800 -325 5462 -450 
Q 5125 -575 4725 -625 
Q 4700 -325 4525 -25 
Q 5000 -50 5137 25 
Q 5275 100 5275 350 
L 5275 4450 
L 3775 4450 
Q 3175 4450 2650 4425 
L 2650 4900 
Q 3175 4875 3775 4875 
L 5800 4875 
z
M 550 -525 
Q 600 -25 600 525 
L 600 3150 
Q 600 3675 550 4025 
L 1125 4025 
Q 1100 3650 1100 3300 
L 1100 500 
Q 1100 0 1125 -525 
L 550 -525 
z
M 3950 1025 
L 3950 1950 
L 2425 1950 
L 2425 1025 
L 3950 1025 
z
M 3950 2350 
L 3950 3150 
L 2425 3150 
L 2425 2350 
L 3950 2350 
z
M 1525 5300 
Q 1750 5000 2225 4350 
Q 1950 4225 1700 4075 
Q 1450 4575 1075 5025 
Q 1350 5225 1525 5300 
z
" transform="scale(0.015625)"/>
      </defs>
      <use xlink:href="#SimHei-65f6"/>
      <use xlink:href="#SimHei-95f4" x="100"/>
     </g>
    </g>
   </g>
   <g id="line2d_14">
    <path d="M 73.832727 154.841733 
L 74.482686 256.101306 
L 74.807666 217.114869 
L 75.132645 259.926411 
L 75.457625 253.779999 
L 75.782604 206.474052 
L 76.107584 270.44262 
L 76.432563 229.489822 
L 77.082523 260.213389 
L 77.407502 257.830722 
L 77.732482 280.283866 
L 78.057461 243.659328 
L 78.382441 263.204939 
L 78.70742 232.799502 
L 79.0324 235.166121 
L 79.357379 273.991132 
L 79.682359 257.275647 
L 80.007338 234.248548 
L 80.332318 249.851053 
L 80.657297 247.514642 
L 80.982277 188.447344 
L 81.307256 278.439281 
L 81.632236 254.283153 
L 81.957215 272.395765 
L 82.282195 250.516576 
L 82.607174 270.459612 
L 83.257133 225.412668 
L 83.582113 247.716659 
L 83.907093 247.883748 
L 84.232072 278.117376 
L 84.557052 203.84972 
L 84.882031 278.609202 
L 85.53199 237.891461 
L 85.85697 233.619842 
L 86.181949 253.730911 
L 86.506929 251.320868 
L 86.831908 221.495993 
L 87.156888 161.444099 
L 87.481867 272.071972 
L 87.806847 247.866756 
L 88.131826 257.441792 
L 88.456806 270.492652 
L 88.781785 236.629328 
L 89.106765 189.002419 
L 89.431744 250.780897 
L 89.756724 250.427839 
L 90.081704 260.99408 
L 90.406683 228.089864 
L 90.731663 250.572272 
L 91.056642 248.654055 
L 91.381622 240.710258 
L 91.706601 275.908405 
L 92.031581 267.147101 
L 92.35656 181.091662 
L 92.68154 263.681661 
L 93.006519 265.081619 
L 93.331499 278.602594 
L 93.981458 268.168514 
L 94.306437 170.53203 
L 94.631417 266.060552 
L 94.956396 275.359939 
L 95.281376 258.414116 
L 95.606355 248.560599 
L 95.931335 207.489801 
L 96.256314 245.132919 
L 96.581294 246.281772 
L 96.906274 203.47495 
L 97.231253 199.927382 
L 97.556233 241.338021 
L 97.881212 216.658915 
L 98.206192 205.944465 
L 98.531171 259.58657 
L 98.856151 176.810603 
L 99.18113 217.979577 
L 99.50611 208.261052 
L 99.831089 221.102344 
L 100.156069 224.589496 
L 100.481048 178.199233 
L 100.806028 281.929265 
L 101.131007 234.573286 
L 101.455987 252.270536 
L 101.780966 230.457427 
L 102.105946 269.643048 
L 102.430925 284.426157 
L 102.755905 218.821629 
L 103.405864 284.474301 
L 103.730844 260.58155 
L 104.055823 268.886901 
L 104.380803 262.233558 
L 104.705782 244.764757 
L 105.030762 242.763468 
L 105.355741 205.821745 
L 105.680721 193.122998 
L 106.0057 274.712352 
L 106.33068 271.292224 
L 106.655659 272.416533 
L 106.980639 265.486597 
L 107.305618 274.453695 
L 107.630598 225.272955 
L 107.955577 215.305213 
L 108.280557 281.330766 
L 108.605536 281.993458 
L 109.255495 236.110125 
L 109.580475 287.331802 
L 109.905455 245.184839 
L 110.230434 218.778205 
L 110.555414 265.353492 
L 110.880393 245.098935 
L 111.205373 249.994541 
L 111.530352 274.302654 
L 111.855332 276.756121 
L 112.180311 254.233121 
L 112.505291 281.301502 
L 112.83027 268.433779 
L 113.15525 277.362172 
L 113.480229 199.019249 
L 113.805209 241.406934 
L 114.130188 241.008564 
L 114.455168 257.998754 
L 114.780147 258.066723 
L 115.105127 272.534534 
L 115.755086 254.342626 
L 116.080066 273.980748 
L 116.405045 264.922082 
L 116.730025 246.050491 
L 117.055004 256.489291 
L 117.379984 233.037391 
L 117.704963 259.920747 
L 118.029943 256.456251 
L 118.354922 251.243459 
L 118.679902 190.813019 
L 119.004881 230.461203 
L 119.65484 252.262984 
L 119.97982 241.540038 
L 120.304799 210.908984 
L 120.629779 250.195614 
L 120.954758 272.588342 
L 121.279738 253.12958 
L 121.604717 264.085695 
L 121.929697 268.606532 
L 122.254676 277.130891 
L 122.579656 228.649659 
L 122.904636 277.347068 
L 123.229615 257.250159 
L 123.554595 270.094282 
L 123.879574 257.753313 
L 124.204554 272.088964 
L 124.529533 236.74072 
L 125.179492 202.26096 
L 125.504472 250.226766 
L 125.829451 248.609687 
L 126.154431 243.163726 
L 126.47941 241.128452 
L 126.80439 261.825748 
L 127.129369 224.735816 
L 127.454349 266.273897 
L 127.779328 207.734298 
L 128.104308 256.036169 
L 128.429287 178.629699 
L 128.754267 235.220873 
L 129.079247 266.141736 
L 129.404226 239.143211 
L 129.729206 281.918881 
L 130.054185 256.644108 
L 130.379165 269.215414 
L 130.704144 252.711386 
L 131.029124 277.588733 
L 131.354103 260.151084 
L 131.679083 267.539807 
L 132.004062 212.841361 
L 132.329042 282.222851 
L 132.654021 217.371638 
L 132.979001 279.859064 
L 133.30398 254.049984 
L 133.62896 260.346493 
L 133.953939 273.081112 
L 134.278919 272.441077 
L 134.603898 276.837306 
L 134.928878 244.94695 
L 135.253857 276.265239 
L 135.578837 258.670886 
L 135.903817 221.748987 
L 136.228796 248.166949 
L 136.553776 220.761558 
L 136.878755 222.323885 
L 137.203735 241.085028 
L 137.528714 267.158429 
L 137.853694 262.309078 
L 138.178673 262.478055 
L 138.503653 284.637614 
L 138.828632 204.019641 
L 139.153612 225.963022 
L 139.478591 266.096424 
L 139.803571 266.577866 
L 140.12855 244.661861 
L 140.45353 284.478077 
L 140.778509 257.028318 
L 141.103489 269.802585 
L 141.428468 266.794043 
L 141.753448 282.703349 
L 142.078428 272.640262 
L 142.403407 268.886901 
L 142.728387 220.569925 
L 143.053366 269.508056 
L 143.378346 277.441468 
L 143.703325 231.650648 
L 144.028305 217.342374 
L 144.353284 276.99873 
L 144.678264 215.66299 
L 145.003243 276.716473 
L 145.328223 276.336983 
L 145.653202 227.55839 
L 145.978182 259.478953 
L 146.303161 240.991572 
L 146.628141 282.800581 
L 146.95312 260.119932 
L 147.2781 213.868438 
L 147.603079 274.274334 
L 147.928059 239.405644 
L 148.253038 227.498917 
L 148.578018 266.369241 
L 148.902998 242.381146 
L 149.227977 272.9414 
L 149.552957 245.371752 
L 149.877936 273.712651 
L 150.202916 272.67047 
L 150.527895 254.660755 
L 150.852875 271.184607 
L 151.177854 279.887384 
L 151.827813 195.73789 
L 152.477772 270.115995 
L 152.802752 285.654306 
L 153.452711 247.710051 
L 153.77769 261.081873 
L 154.10267 257.776913 
L 154.427649 273.782508 
L 154.752629 243.055165 
L 155.077609 262.25527 
L 155.402588 272.273989 
L 155.727568 269.607176 
L 156.052547 225.398508 
L 156.377527 282.797749 
L 156.702506 266.801595 
L 157.027486 265.67351 
L 157.352465 266.599578 
L 157.677445 284.63667 
L 158.002424 234.584614 
L 158.327404 259.12212 
L 158.652383 206.750645 
L 158.977363 277.81435 
L 159.302342 262.807513 
L 159.627322 286.073444 
L 159.952301 249.844445 
L 160.277281 269.950794 
L 160.60226 280.618987 
L 160.92724 273.675835 
L 161.252219 282.411651 
L 161.577199 230.420611 
L 161.902179 202.1288 
L 162.227158 254.667363 
L 162.552138 285.927124 
L 163.202097 284.082539 
L 163.527076 242.876748 
L 163.852056 253.616686 
L 164.177035 201.039419 
L 164.502015 243.165614 
L 165.151974 256.236298 
L 165.476953 275.992422 
L 165.801933 228.338137 
L 166.126912 260.564558 
L 166.451892 275.756421 
L 166.776871 260.221885 
L 167.101851 263.271019 
L 167.42683 267.895696 
L 167.75181 274.258286 
L 168.07679 199.51674 
L 168.401769 206.780853 
L 168.726749 265.540405 
L 169.051728 217.451879 
L 169.701687 280.040312 
L 170.026667 263.768509 
L 170.351646 217.241366 
L 170.676626 248.194325 
L 171.001605 248.689927 
L 171.326585 269.259783 
L 171.651564 234.089956 
L 172.301523 284.577197 
L 172.626503 276.700425 
L 172.951482 287.014617 
L 173.276462 288.493872 
L 173.601441 280.420746 
L 173.926421 245.171623 
L 174.57638 256.556316 
L 174.90136 276.619241 
L 175.226339 264.123455 
L 175.551319 267.772976 
L 175.876298 279.781655 
L 176.201278 257.269039 
L 176.526257 278.401521 
L 176.851237 281.089101 
L 177.176216 221.852827 
L 177.501196 260.745807 
L 177.826175 220.34242 
L 178.151155 284.108971 
L 178.476134 257.030206 
L 178.801114 245.794666 
L 179.126093 281.904721 
L 179.451073 278.402465 
L 179.776052 271.824642 
L 180.101032 277.575517 
L 180.426011 260.688223 
L 180.750991 257.020766 
L 181.075971 272.48639 
L 181.40095 293.455559 
L 181.72593 269.222966 
L 182.050909 271.751954 
L 182.375889 249.239338 
L 182.700868 240.743299 
L 183.025848 244.618436 
L 183.350827 225.108698 
L 183.675807 250.396687 
L 184.000786 226.686129 
L 184.325766 264.72101 
L 184.650745 280.446234 
L 184.975725 284.587582 
L 185.300704 233.460305 
L 185.625684 242.694556 
L 185.950663 273.056568 
L 186.275643 290.152487 
L 186.600622 287.826461 
L 186.925602 247.677011 
L 187.250581 277.761486 
L 187.575561 272.939512 
L 187.900541 286.175397 
L 188.5505 250.018141 
L 188.875479 260.868528 
L 189.200459 280.35561 
L 189.525438 259.451577 
L 189.850418 272.497718 
L 190.500377 232.36054 
L 191.150336 235.265241 
L 191.475315 284.835855 
L 191.800295 235.812764 
L 192.125274 277.763374 
L 192.450254 239.016715 
L 192.775233 241.609895 
L 193.100213 266.829915 
L 193.425192 221.864155 
L 193.750172 281.708368 
L 194.400131 251.319924 
L 194.725111 254.389826 
L 195.37507 235.554107 
L 195.700049 198.383934 
L 196.025029 237.57522 
L 196.674988 275.734709 
L 196.999967 226.892866 
L 197.324947 260.698607 
L 197.649926 262.508263 
L 197.974906 276.218039 
L 198.299885 282.897814 
L 198.624865 287.290266 
L 198.949844 271.468753 
L 199.274824 280.191353 
L 199.599803 239.725662 
L 199.924783 285.906356 
L 200.249762 277.052539 
L 200.574742 255.038357 
L 200.899722 290.932235 
L 201.224701 267.820176 
L 201.549681 272.966888 
L 201.87466 255.041189 
L 202.19964 276.531448 
L 202.524619 283.147975 
L 202.849599 224.870809 
L 203.174578 260.015148 
L 203.499558 264.845618 
L 203.824537 250.494864 
L 204.149517 222.479646 
L 204.474496 261.182881 
L 204.799476 229.433182 
L 205.124455 225.199323 
L 205.449435 281.341151 
L 205.774414 258.026131 
L 206.099394 249.147769 
L 206.424373 193.89897 
L 206.749353 267.276429 
L 207.074333 288.12099 
L 207.399312 277.536813 
L 207.724292 261.079985 
L 208.049271 288.767633 
L 208.69923 224.058965 
L 209.02421 250.192782 
L 209.349189 234.706391 
L 209.674169 201.062075 
L 209.999148 238.989338 
L 210.324128 239.387708 
L 210.649107 271.046783 
L 210.974087 247.280529 
L 211.299066 267.32835 
L 211.624046 262.734824 
L 211.949025 261.324482 
L 212.274005 211.121385 
L 212.598984 276.410616 
L 212.923964 256.574252 
L 213.248943 264.167823 
L 213.573923 254.45685 
L 213.898903 266.841243 
L 214.223882 273.220825 
L 214.548862 269.605288 
L 214.873841 289.186771 
L 215.198821 252.576393 
L 215.5238 256.153226 
L 215.84878 280.302746 
L 216.173759 248.600247 
L 216.498739 238.724073 
L 216.823718 262.766921 
L 217.148698 254.992101 
L 217.473677 276.396456 
L 217.798657 277.002506 
L 218.123636 295.488 
L 218.448616 230.218594 
L 218.773595 227.073171 
L 219.098575 269.188982 
L 219.423554 276.234087 
L 219.748534 264.024334 
L 220.073514 263.213435 
L 220.398493 217.852137 
L 220.723473 286.127253 
L 221.048452 254.962836 
L 221.373432 279.870392 
L 221.698411 239.686014 
L 222.023391 256.391115 
L 222.34837 235.286009 
L 222.67335 221.58473 
L 222.998329 245.201831 
L 223.323309 217.79172 
L 223.648288 273.055624 
L 223.973268 272.435413 
L 224.298247 265.400693 
L 224.623227 234.63559 
L 224.948206 274.137453 
L 225.273186 273.690939 
L 225.598165 265.728262 
L 226.248124 284.742398 
L 226.573104 252.937003 
L 226.898084 273.809884 
L 227.223063 241.136004 
L 227.548043 224.964266 
L 227.873022 267.093293 
L 228.198002 241.357845 
L 228.522981 268.761348 
L 228.847961 240.686658 
L 229.17294 282.060482 
L 229.49792 240.319441 
L 229.822899 234.314629 
L 230.147879 286.963641 
L 230.472858 221.607386 
L 230.797838 286.769176 
L 231.122817 223.928693 
L 231.447797 272.261716 
L 232.097756 289.173555 
L 232.422735 287.814188 
L 232.747715 263.392795 
L 233.072695 265.78207 
L 233.397674 292.153777 
L 233.722654 290.618825 
L 234.047633 191.384142 
L 234.372613 195.386721 
L 234.697592 273.393578 
L 235.022572 255.674616 
L 235.347551 270.132043 
L 235.672531 236.776592 
L 236.32249 251.248179 
L 236.647469 229.006492 
L 236.972449 269.276775 
L 237.297428 193.060694 
L 237.947387 279.073652 
L 238.272367 270.01121 
L 238.597346 238.800538 
L 238.922326 275.162642 
L 239.247305 264.910754 
L 239.572285 286.509574 
L 239.897265 272.312693 
L 240.222244 271.337536 
L 240.547224 243.396895 
L 241.197183 263.117146 
L 241.522162 242.781404 
L 241.847142 241.385222 
L 242.172121 281.140078 
L 242.497101 249.733052 
L 242.82208 273.87974 
L 243.14706 268.531955 
L 243.472039 284.508285 
L 243.797019 227.811383 
L 244.121998 229.557791 
L 244.446978 221.566794 
L 244.771957 260.748639 
L 245.421916 249.893533 
L 245.746896 227.987911 
L 246.071876 250.694993 
L 246.396855 228.307929 
L 246.721835 278.076783 
L 247.046814 224.349719 
L 247.371794 268.548947 
L 247.696773 286.267909 
L 248.021753 290.390376 
L 248.346732 250.187118 
L 248.671712 280.766252 
L 248.996691 260.736367 
L 249.321671 259.900923 
L 249.64665 170.511261 
L 249.97163 246.197756 
L 250.296609 288.255983 
L 250.946568 232.740974 
L 251.271548 288.595824 
L 251.596527 269.400439 
L 251.921507 257.992146 
L 252.246486 268.097713 
L 252.571466 202.62157 
L 252.896446 269.818633 
L 253.221425 255.163909 
L 253.546405 209.1352 
L 253.871384 273.786284 
L 254.196364 289.85607 
L 254.521343 280.84838 
L 254.846323 260.771295 
L 255.171302 230.076993 
L 255.496282 280.769084 
L 255.821261 277.273436 
L 256.146241 269.917754 
L 256.47122 266.940364 
L 256.7962 250.701601 
L 257.121179 273.563498 
L 257.446159 271.026959 
L 257.771138 216.073632 
L 258.096118 279.874168 
L 258.746077 220.322596 
L 259.071057 260.86664 
L 259.396036 274.862449 
L 259.721016 273.763627 
L 260.045995 260.891184 
L 260.370975 287.308202 
L 260.695954 224.363879 
L 261.020934 256.568588 
L 261.345913 259.616778 
L 261.670893 244.211571 
L 261.995872 213.791974 
L 262.320852 241.468294 
L 262.645831 241.208693 
L 262.970811 284.970847 
L 263.29579 173.526411 
L 263.62077 215.234412 
L 263.945749 170.667022 
L 264.270729 202.859459 
L 264.595708 251.221747 
L 264.920688 267.450126 
L 265.245667 131.442697 
L 265.570647 210.523831 
L 265.895627 202.316657 
L 266.220606 279.805255 
L 266.545586 273.440778 
L 266.870565 284.184492 
L 267.195545 217.814376 
L 267.520524 259.527098 
L 267.845504 240.453489 
L 268.170483 263.418284 
L 268.495463 267.949505 
L 268.820442 248.646503 
L 269.145422 253.837583 
L 269.470401 270.251931 
L 269.795381 246.741502 
L 270.12036 275.026705 
L 270.44534 284.462029 
L 270.770319 276.733465 
L 271.095299 292.489842 
L 272.070238 135.764349 
L 272.395217 180.684797 
L 272.720197 174.714913 
L 273.370156 246.077867 
L 273.695135 233.393281 
L 274.020115 274.296046 
L 274.345094 275.501539 
L 274.670074 249.462123 
L 274.995053 255.624583 
L 275.645012 278.005983 
L 275.969992 276.068886 
L 276.294971 277.482061 
L 276.94493 202.502626 
L 277.26991 279.183157 
L 277.594889 274.849232 
L 277.919869 275.609156 
L 278.244848 252.978539 
L 278.569828 255.163909 
L 278.894808 280.364106 
L 279.219787 252.652858 
L 279.544767 243.278894 
L 279.869746 277.550973 
L 280.194726 277.998431 
L 280.519705 263.988462 
L 280.844685 232.826878 
L 281.494644 254.346402 
L 281.819623 278.546898 
L 282.144603 268.569715 
L 282.469582 249.043929 
L 282.794562 276.096262 
L 283.119541 250.487312 
L 283.444521 273.175513 
L 283.7695 205.58008 
L 284.419459 276.889226 
L 284.744439 225.419276 
L 285.069419 235.79766 
L 285.394398 197.834524 
L 285.719378 283.481208 
L 286.044357 289.439764 
L 286.369337 252.000551 
L 286.694316 236.239454 
L 287.019296 272.954616 
L 287.344275 289.284003 
L 287.669255 204.172569 
L 287.994234 275.501539 
L 288.319214 262.111781 
L 288.644193 266.369241 
L 288.969173 255.921001 
L 289.294152 287.386554 
L 289.944111 249.609388 
L 290.269091 260.902512 
L 290.59407 249.019385 
L 290.91905 257.117054 
L 291.244029 286.075332 
L 291.569009 288.543904 
L 291.893989 246.530045 
L 292.218968 290.69057 
L 292.543948 282.257779 
L 293.193907 247.424017 
L 293.518886 282.455076 
L 293.843866 249.359226 
L 294.168845 187.844126 
L 294.493825 250.637408 
L 294.818804 235.645675 
L 295.143784 251.433204 
L 295.468763 236.374446 
L 295.793743 280.889916 
L 296.118722 258.744518 
L 296.443702 263.387131 
L 296.768681 237.814053 
L 297.093661 268.131697 
L 297.41864 271.093983 
L 297.74362 243.612128 
L 298.0686 246.607454 
L 298.393579 240.782003 
L 298.718559 277.921967 
L 299.043538 241.821352 
L 299.368518 225.727965 
L 299.693497 285.262545 
L 300.343456 237.446835 
L 300.668436 284.210924 
L 300.993415 275.435459 
L 301.318395 275.060689 
L 301.643374 288.197454 
L 301.968354 281.369471 
L 302.293333 281.906609 
L 302.618313 240.740467 
L 303.268272 280.982429 
L 303.593251 221.781083 
L 303.918231 202.186384 
L 304.24321 260.683503 
L 304.56819 243.60552 
L 304.89317 262.25999 
L 305.218149 271.621682 
L 305.543129 284.946303 
L 305.868108 241.659927 
L 306.193088 262.343063 
L 306.518067 272.586454 
L 306.843047 235.222761 
L 307.168026 288.92245 
L 307.493006 250.09083 
L 307.817985 276.336983 
L 308.142965 275.14093 
L 308.467944 197.856236 
L 308.792924 224.205286 
L 309.117903 231.698793 
L 309.767862 260.124652 
L 310.092842 286.621911 
L 310.417821 248.153733 
L 310.742801 259.179704 
L 311.067781 225.197435 
L 311.39276 240.360033 
L 311.71774 205.242126 
L 312.042719 282.014226 
L 312.367699 213.263331 
L 312.692678 255.550007 
L 313.017658 202.151456 
L 313.342637 260.930832 
L 313.667617 267.193357 
L 313.992596 279.449366 
L 314.317576 280.621819 
L 314.642555 272.471285 
L 314.967535 251.3709 
L 315.292514 273.294457 
L 315.617494 251.893878 
L 315.942473 265.330836 
L 316.267453 215.342973 
L 316.592432 246.863279 
L 317.242391 220.869175 
L 317.567371 248.811704 
L 317.892351 242.619979 
L 318.21733 195.899315 
L 318.54231 208.70851 
L 318.867289 159.85062 
L 319.192269 238.706137 
L 319.517248 250.856417 
L 319.842228 272.680854 
L 320.167207 263.017082 
L 320.492187 224.633864 
L 320.817166 284.171276 
L 321.142146 267.475614 
L 321.467125 291.300397 
L 322.117084 53.568 
L 322.442064 215.99056 
L 322.767043 216.908132 
L 323.092023 265.128819 
L 323.417002 240.613026 
L 323.741982 230.016577 
L 324.066962 267.688015 
L 324.391941 243.215646 
L 324.716921 253.861183 
L 325.0419 235.550331 
L 325.36688 237.010705 
L 325.691859 207.617241 
L 326.016839 214.36404 
L 326.341818 175.163315 
L 326.991777 256.224026 
L 327.316757 234.586502 
L 327.641736 235.961916 
L 327.966716 242.583163 
L 328.291695 265.854759 
L 328.616675 230.573539 
L 328.941654 241.925192 
L 329.266634 206.787461 
L 329.591613 115.353086 
L 329.916593 211.182746 
L 330.241572 206.268259 
L 330.891532 265.642358 
L 331.216511 275.085234 
L 331.541491 252.922843 
L 331.86647 198.956001 
L 332.19145 225.892222 
L 332.516429 279.02834 
L 332.841409 272.381605 
L 333.166388 253.276845 
L 333.491368 217.138469 
L 333.816347 267.467118 
L 334.141327 278.20328 
L 334.466306 242.242377 
L 334.791286 228.943244 
L 335.116265 266.957356 
L 335.441245 268.254418 
L 336.091204 180.196746 
L 336.416183 273.066952 
L 336.741163 228.52505 
L 337.066143 279.218085 
L 337.391122 264.267887 
L 337.716102 255.058181 
L 338.041081 284.511117 
L 338.366061 259.56297 
L 338.69104 269.003013 
L 339.01602 253.868735 
L 339.340999 258.658613 
L 339.665979 246.187372 
L 339.990958 245.623801 
L 340.315938 238.457864 
L 340.640917 240.033407 
L 340.965897 250.803553 
L 341.290876 268.566883 
L 341.615856 207.753178 
L 341.940835 238.431432 
L 342.265815 280.30841 
L 342.590794 261.488739 
L 342.915774 277.220571 
L 343.890713 168.013426 
L 344.215692 254.328465 
L 344.540672 267.006444 
L 344.865651 201.971151 
L 345.190631 219.267199 
L 345.51561 268.083553 
L 345.84059 246.557421 
L 346.165569 259.189144 
L 346.490549 220.900327 
L 346.815528 228.437258 
L 347.465487 264.714402 
L 347.790467 265.061795 
L 348.115446 239.86443 
L 348.440426 245.978747 
L 348.765405 214.645354 
L 349.090385 277.641597 
L 349.415364 249.023161 
L 349.740344 242.045081 
L 350.065324 274.29699 
L 350.390303 268.467763 
L 350.715283 267.061196 
L 351.040262 228.836571 
L 351.365242 235.132137 
L 351.690221 266.409833 
L 352.015201 242.876748 
L 352.34018 279.621175 
L 352.66516 246.613118 
L 352.990139 199.845253 
L 353.315119 272.223012 
L 353.640098 225.40134 
L 353.965078 237.040913 
L 354.290057 290.406424 
L 354.615037 278.496865 
L 354.940016 281.838641 
L 355.264996 274.117629 
L 355.589975 275.745093 
L 356.239934 240.273184 
L 356.564914 228.541098 
L 356.889894 277.75771 
L 357.214873 233.721794 
L 357.539853 268.141137 
L 357.864832 213.117011 
L 358.189812 230.266738 
L 358.839771 292.236849 
L 359.16475 215.60163 
L 359.48973 267.584175 
L 359.814709 246.730174 
L 360.139689 274.949297 
L 360.464668 269.249399 
L 360.789648 269.473128 
L 361.114627 265.553621 
L 361.439607 268.75002 
L 361.764586 254.303921 
L 362.089566 287.114681 
L 362.414545 272.893255 
L 362.739525 283.954155 
L 363.064505 276.374744 
L 363.389484 227.739638 
L 363.714464 235.646619 
L 364.039443 277.928575 
L 364.364423 278.452497 
L 364.689402 256.176826 
L 365.014382 202.814147 
L 365.339361 195.816243 
L 365.664341 252.176135 
L 365.98932 265.235492 
L 366.3143 253.375965 
L 366.639279 274.108189 
L 366.964259 258.388628 
L 367.289238 236.064813 
L 367.614218 273.104712 
L 367.939197 230.249746 
L 368.264177 285.519314 
L 368.914136 238.248295 
L 369.239115 269.687417 
L 369.564095 225.976238 
L 369.889075 257.637201 
L 370.214054 272.383493 
L 370.539034 196.328837 
L 370.864013 272.777143 
L 371.188993 258.435828 
L 371.838952 208.638654 
L 372.163931 269.846009 
L 372.488911 265.682006 
L 372.81389 277.311196 
L 373.13887 260.962928 
L 373.463849 262.973657 
L 373.788829 260.197341 
L 374.113808 279.675927 
L 374.438788 277.469789 
L 374.763767 263.268187 
L 375.088747 273.435114 
L 375.413726 195.211136 
L 375.738706 273.42945 
L 376.063686 287.521547 
L 376.388665 271.858627 
L 376.713645 282.632548 
L 377.363604 249.975661 
L 377.688583 281.438383 
L 378.013563 254.913748 
L 378.338542 252.881307 
L 378.663522 223.294322 
L 378.988501 269.5798 
L 379.313481 261.930533 
L 379.63846 206.821446 
L 379.96344 270.636141 
L 380.288419 268.087329 
L 380.613399 244.226675 
L 380.938378 271.541441 
L 381.263358 240.853747 
L 381.913317 269.722345 
L 382.238296 246.253452 
L 382.563276 256.875389 
L 382.888256 292.338801 
L 383.213235 239.776638 
L 383.538215 261.870116 
L 383.863194 270.599325 
L 384.188174 261.922981 
L 384.513153 266.60241 
L 384.838133 280.199849 
L 385.163112 264.101743 
L 385.488092 268.632964 
L 385.813071 253.038011 
L 386.138051 269.772377 
L 386.46303 259.487449 
L 386.78801 279.678759 
L 387.112989 264.649265 
L 387.437969 282.068034 
L 387.762948 233.988947 
L 388.087928 223.872052 
L 388.412907 271.093039 
L 388.737887 266.271065 
L 389.062867 264.596401 
L 389.387846 260.414462 
L 389.712826 264.215023 
L 390.037805 233.377232 
L 390.362785 293.458391 
L 390.687764 257.633425 
L 391.012744 271.355472 
L 391.337723 260.388974 
L 391.662703 259.313753 
L 391.987682 268.591427 
L 392.312662 259.119288 
L 392.637641 278.798003 
L 392.962621 258.953143 
L 393.2876 267.659695 
L 393.61258 252.916235 
L 393.937559 286.801272 
L 394.262539 282.902534 
L 394.587518 266.980956 
L 394.912498 269.97817 
L 395.237477 268.362978 
L 395.562457 256.907485 
L 395.887437 269.067206 
L 396.212416 244.273875 
L 396.537396 273.437002 
L 396.862375 264.321696 
L 397.187355 278.542178 
L 397.512334 258.347092 
L 397.837314 254.995877 
L 398.162293 240.367585 
L 398.487273 268.682052 
L 398.487273 268.682052 
" clip-path="url(#p4e26d03a2b)" style="fill: none; stroke: #928395; stroke-width: 1.5; stroke-linecap: square"/>
   </g>
   <g id="patch_3">
    <path d="M 57.6 307.584 
L 57.6 41.472 
" style="fill: none; stroke: #000000; stroke-width: 0.8; stroke-linejoin: miter; stroke-linecap: square"/>
   </g>
   <g id="patch_4">
    <path d="M 414.72 307.584 
L 414.72 41.472 
" style="fill: none; stroke: #000000; stroke-width: 0.8; stroke-linejoin: miter; stroke-linecap: square"/>
   </g>
   <g id="patch_5">
    <path d="M 57.6 307.584 
L 414.72 307.584 
" style="fill: none; stroke: #000000; stroke-width: 0.8; stroke-linejoin: miter; stroke-linecap: square"/>
   </g>
   <g id="patch_6">
    <path d="M 57.6 41.472 
L 414.72 41.472 
" style="fill: none; stroke: #000000; stroke-width: 0.8; stroke-linejoin: miter; stroke-linecap: square"/>
   </g>
   <g id="text_16">
    <!-- VC签名时间 -->
    <g transform="translate(206.16 35.472) scale(0.12 -0.12)">
     <defs>
      <path id="SimHei-56" d="M 3050 4400 
L 1800 75 
L 1300 75 
L 50 4400 
L 650 4400 
L 1525 1125 
L 1575 1125 
L 2450 4400 
L 3050 4400 
z
" transform="scale(0.015625)"/>
      <path id="SimHei-43" d="M 2975 1825 
Q 2950 875 2575 475 
Q 2200 75 1675 75 
Q 1075 75 650 562 
Q 225 1050 225 2125 
Q 225 3300 637 3875 
Q 1050 4450 1700 4450 
Q 2250 4450 2612 4037 
Q 2975 3625 2950 2875 
L 2400 2875 
Q 2400 3425 2225 3700 
Q 2050 3975 1700 3975 
Q 1300 3975 1062 3562 
Q 825 3150 825 2175 
Q 825 1275 1062 912 
Q 1300 550 1675 550 
Q 1950 550 2175 812 
Q 2400 1075 2400 1825 
L 2975 1825 
z
" transform="scale(0.015625)"/>
      <path id="SimHei-7b7e" d="M 5950 1650 
Q 4975 1925 4625 2100 
L 4625 1650 
Q 4175 1675 3750 1675 
L 2775 1675 
Q 2325 1675 1850 1650 
L 1850 2075 
Q 1175 1725 600 1550 
Q 500 1850 250 2050 
Q 1400 2300 2087 2812 
Q 2775 3325 2950 3725 
Q 3200 3625 3550 3550 
L 3450 3425 
Q 4075 2850 4862 2537 
Q 5650 2225 6200 2225 
Q 5975 1975 5950 1650 
z
M 1525 -525 
Q 1100 -525 625 -550 
L 625 -75 
Q 1125 -100 1500 -100 
L 3825 -100 
Q 3975 200 4150 650 
Q 4325 1100 4425 1475 
Q 4700 1350 5025 1275 
Q 4850 1125 4700 762 
Q 4550 400 4350 -100 
Q 5025 -100 5725 -75 
L 5725 -550 
Q 5025 -525 4675 -525 
L 1525 -525 
z
M 3250 4275 
Q 2750 4300 2350 4300 
Q 2450 4025 2575 3750 
Q 2275 3675 2075 3575 
Q 2025 3875 1900 4300 
L 1625 4300 
Q 1200 3750 800 3400 
Q 600 3625 325 3750 
Q 900 4100 1187 4550 
Q 1475 5000 1575 5300 
Q 1825 5200 2150 5100 
Q 1975 4950 1875 4725 
L 2650 4725 
Q 2950 4725 3250 4750 
L 3250 4275 
z
M 5300 3675 
Q 5050 3575 4825 3475 
Q 4775 3850 4625 4250 
L 4150 4250 
Q 3875 3900 3650 3625 
Q 3425 3800 3175 3875 
Q 3525 4175 3737 4525 
Q 3950 4875 4100 5275 
Q 4325 5150 4625 5075 
Q 4475 4900 4375 4650 
L 5300 4650 
Q 5550 4650 6000 4675 
L 6000 4225 
Q 5325 4250 5050 4250 
Q 5150 4025 5300 3675 
z
M 1950 2125 
Q 2350 2100 2775 2100 
L 3750 2100 
Q 4175 2100 4575 2125 
Q 3875 2425 3150 3150 
Q 2800 2650 1950 2125 
z
M 3025 200 
Q 2950 650 2725 1325 
Q 2925 1350 3175 1425 
Q 3275 1125 3475 300 
Q 3225 275 3025 200 
z
M 1825 1275 
Q 2150 675 2275 275 
Q 2075 225 1875 100 
Q 1775 500 1425 1075 
Q 1550 1150 1825 1275 
z
" transform="scale(0.015625)"/>
      <path id="SimHei-540d" d="M 2900 5000 
Q 2775 4875 2687 4750 
Q 2600 4625 2475 4450 
L 5350 4450 
Q 5050 4000 4512 3312 
Q 3975 2625 2975 2000 
L 5500 2000 
Q 5475 1625 5475 1225 
L 5475 200 
Q 5475 -225 5500 -625 
L 4975 -625 
L 4975 -75 
L 2250 -75 
L 2250 -650 
L 1750 -650 
Q 1775 -300 1775 150 
L 1775 1400 
Q 950 1050 625 950 
Q 525 1200 300 1425 
Q 950 1550 1737 1875 
Q 2525 2200 2950 2525 
Q 2400 3025 1975 3300 
Q 2150 3450 2325 3675 
Q 3125 3025 3375 2825 
Q 4000 3300 4500 4050 
L 2225 4050 
Q 1475 3150 1050 2825 
Q 900 2975 600 3150 
Q 1175 3525 1587 4012 
Q 2000 4500 2350 5250 
Q 2675 5075 2900 5000 
z
M 4975 325 
L 4975 1600 
L 2250 1600 
L 2250 325 
L 4975 325 
z
" transform="scale(0.015625)"/>
     </defs>
     <use xlink:href="#SimHei-56"/>
     <use xlink:href="#SimHei-43" x="50"/>
     <use xlink:href="#SimHei-7b7e" x="100"/>
     <use xlink:href="#SimHei-540d" x="200"/>
     <use xlink:href="#SimHei-65f6" x="300"/>
     <use xlink:href="#SimHei-95f4" x="400"/>
    </g>
   </g>
  </g>
 </g>
 <defs>
  <clipPath id="p4e26d03a2b">
   <rect x="57.6" y="41.472" width="357.12" height="266.112"/>
  </clipPath>
 </defs>
</svg>
